<svg id="Capa_1" data-name="Capa 1" xmlns="http://www.w3.org/2000/svg" viewBox="0 0 320.79 115.07"><defs><style>.cls-1,.cls-2{fill:#fff;}.cls-2{font-size:29.11px;font-family:Audiowide-Regular, Audiowide;}.cls-3{letter-spacing:0em;}.cls-4{letter-spacing:0em;}.cls-5{letter-spacing:-0.02em;}</style></defs><rect class="cls-1" x="25.7" y="84.93" width="37.57" height="4.7"/><path class="cls-1" d="M58.21,45l-1.7,4.39a28.18,28.18,0,1,1-24.11-.16l-1.69-4.39a32.87,32.87,0,1,0,27.5.16Z"/><polygon class="cls-1" points="44.49 7.66 25.7 31.89 32.26 31.89 44.49 80.51 56.72 31.89 63.27 31.89 44.49 7.66"/><text class="cls-2" transform="translate(90.85 64.6)">E<tspan class="cls-3" x="21.99" y="0">L</tspan><tspan class="cls-4" x="43.33" y="0">E</tspan><tspan class="cls-5" x="65.32" y="0">V</tspan><tspan x="87.27" y="0">ATERCH</tspan></text><path class="cls-1" d="M106.75,72.7h1v7.81h-1Z"/><path class="cls-1" d="M109.88,72.7h1l2.82,4.91.85,1.61h0c-.05-.78-.12-1.66-.12-2.48v-4h.94v7.81h-1l-2.82-4.92L110.74,74h0c0,.79.12,1.62.12,2.44v4.09h-.94Z"/><path class="cls-1" d="M117.13,76.61c0-2.52,1.51-4.06,3.58-4.06a3,3,0,0,1,2.25,1l-.54.64a2.24,2.24,0,0,0-1.68-.73c-1.58,0-2.59,1.21-2.59,3.15s.93,3.2,2.6,3.2a2.08,2.08,0,0,0,1.4-.46v-2H120.5v-.82h2.56v3.28a3.31,3.31,0,0,1-2.41.91C118.59,80.65,117.13,79.15,117.13,76.61Z"/><path class="cls-1" d="M124.92,72.7h4.5v.84h-3.5V76h3v.84h-3v2.84h3.62v.84h-4.62Z"/><path class="cls-1" d="M131.19,72.7h1l2.83,4.91.84,1.61h.05c-.05-.78-.13-1.66-.13-2.48v-4h.94v7.81h-1l-2.83-4.92L132.06,74H132c.05.79.13,1.62.13,2.44v4.09h-.95Z"/><path class="cls-1" d="M138.89,72.7h1v7.81h-1Z"/><path class="cls-1" d="M142,72.7h4.5v.84H143V76h3v.84h-3v2.84h3.62v.84H142Z"/><path class="cls-1" d="M148.29,72.7h2.45c1.59,0,2.73.57,2.73,2.2s-1.14,2.31-2.73,2.31h-1.45v3.3h-1Zm2.31,3.7c1.21,0,1.88-.49,1.88-1.5s-.67-1.4-1.88-1.4h-1.31v2.9Zm-.06.53.78-.51,2.39,4.09h-1.13Z"/><path class="cls-1" d="M154.92,71.72l1.69-1.54.56.67-1.81,1.37Zm.14,1h1v7.81h-1Z"/><path class="cls-1" d="M159.8,72.7h1.12l2.64,7.81h-1.05l-1.36-4.36c-.28-.88-.53-1.74-.78-2.64h-.05c-.24.91-.49,1.76-.77,2.64l-1.38,4.36h-1Zm-1.25,4.64h3.59v.79h-3.59Z"/><path class="cls-1" d="M167,72.7h4.5v.84H168V76h3v.84h-3v2.84h3.63v.84H167Z"/><path class="cls-1" d="M173.27,72.7h1l2.83,4.91.84,1.61H178c-.05-.78-.13-1.66-.13-2.48v-4h.94v7.81h-1L175,75.59,174.14,74h0c0,.79.13,1.62.13,2.44v4.09h-.95Z"/><path class="cls-1" d="M185,73.54h-2.36V72.7h5.71v.84H186v7h-1Z"/><path class="cls-1" d="M189.73,72.7h2.45c1.59,0,2.73.57,2.73,2.2s-1.14,2.31-2.73,2.31h-1.46v3.3h-1Zm2.3,3.7c1.22,0,1.89-.49,1.89-1.5s-.67-1.4-1.89-1.4h-1.31v2.9Zm-.05.53.78-.51,2.38,4.09H194Z"/><path class="cls-1" d="M198.06,72.7h1.12l2.64,7.81h-1l-1.36-4.36c-.28-.88-.53-1.74-.78-2.64h0c-.24.91-.49,1.76-.77,2.64l-1.38,4.36h-1Zm-1.25,4.64h3.59v.79h-3.59Z"/><path class="cls-1" d="M202.88,72.7h1l2.82,4.91.85,1.61h0c-.06-.78-.13-1.66-.13-2.48v-4h.94v7.81h-1l-2.83-4.92L203.75,74h-.05c.05.79.12,1.62.12,2.44v4.09h-.94Z"/><path class="cls-1" d="M210,79.49l.6-.68a3.06,3.06,0,0,0,2.15,1c1,0,1.64-.51,1.64-1.27s-.57-1.05-1.31-1.38L212,76.64a2.19,2.19,0,0,1-1.58-2,2.22,2.22,0,0,1,2.46-2.08,3.23,3.23,0,0,1,2.3,1l-.53.64a2.5,2.5,0,0,0-1.77-.73c-.88,0-1.46.44-1.46,1.14s.68,1,1.3,1.29l1.11.48a2.18,2.18,0,0,1,1.61,2.09c0,1.23-1,2.22-2.66,2.22A3.78,3.78,0,0,1,210,79.49Z"/><path class="cls-1" d="M216.93,72.7h2.24c1.75,0,2.93.59,2.93,2.3s-1.18,2.41-2.89,2.41h-1.28v3.1h-1Zm2.16,3.9c1.36,0,2-.49,2-1.6s-.7-1.5-2.07-1.5h-1.11v3.1Z"/><path class="cls-1" d="M223.22,76.57c0-2.5,1.37-4,3.33-4s3.34,1.53,3.34,4-1.37,4.08-3.34,4.08S223.22,79.08,223.22,76.57Zm5.65,0c0-1.94-.92-3.14-2.32-3.14s-2.31,1.2-2.31,3.14.92,3.21,2.31,3.21S228.87,78.52,228.87,76.57Z"/><path class="cls-1" d="M231.57,72.7H234c1.59,0,2.73.57,2.73,2.2s-1.14,2.31-2.73,2.31h-1.45v3.3h-1Zm2.31,3.7c1.21,0,1.88-.49,1.88-1.5s-.67-1.4-1.88-1.4h-1.31v2.9Zm-.06.53.78-.51L237,80.51h-1.13Z"/><path class="cls-1" d="M239.8,73.54h-2.36V72.7h5.72v.84H240.8v7h-1Z"/><path class="cls-1" d="M244.56,72.7h4.5v.84h-3.51V76h3v.84h-3v2.84h3.63v.84h-4.62Z"/><path class="cls-1" d="M252.14,72.7h1.05l1.26,4.22c.28.92.47,1.66.76,2.58h0c.29-.92.49-1.66.76-2.58l1.25-4.22h1l-2.48,7.81h-1.15Z"/><path class="cls-1" d="M259.29,72.7h4.5v.84h-3.51V76h3v.84h-3v2.84h3.63v.84h-4.62Z"/><path class="cls-1" d="M265.56,72.7H268c1.59,0,2.73.57,2.73,2.2s-1.14,2.31-2.73,2.31h-1.46v3.3h-1Zm2.3,3.7c1.22,0,1.89-.49,1.89-1.5s-.67-1.4-1.89-1.4h-1.31v2.9Zm-.05.53.78-.51L271,80.51h-1.12Z"/><path class="cls-1" d="M273.79,73.54h-2.36V72.7h5.72v.84h-2.36v7h-1Z"/><path class="cls-1" d="M278.54,72.7h1v7.81h-1Z"/><path class="cls-1" d="M281.22,76.61c0-2.52,1.48-4.06,3.47-4.06a2.87,2.87,0,0,1,2.14,1l-.54.64a2.15,2.15,0,0,0-1.59-.73c-1.47,0-2.45,1.21-2.45,3.15s.93,3.2,2.41,3.2a2.33,2.33,0,0,0,1.81-.88l.55.62a3,3,0,0,1-2.4,1.13C282.68,80.65,281.22,79.15,281.22,76.61Z"/><path class="cls-1" d="M290.08,72.7h1.12l2.64,7.81h-1l-1.37-4.36c-.28-.88-.53-1.74-.78-2.64h-.05c-.24.91-.49,1.76-.77,2.64l-1.38,4.36h-1Zm-1.26,4.64h3.6v.79h-3.6Z"/><path class="cls-1" d="M294.89,72.7h1v7h3.41v.84h-4.41Z"/></svg>